<?xml version="1.0" standalone="no"?>
<!DOCTYPE svg PUBLIC "-//W3C//DTD SVG 20010904//EN"
 "http://www.w3.org/TR/2001/REC-SVG-20010904/DTD/svg10.dtd">
<svg version="1.0" xmlns="http://www.w3.org/2000/svg"
 width="500.000000pt" height="500.000000pt" viewBox="0 0 500.000000 500.000000"
 preserveAspectRatio="xMidYMid meet">

<g transform="translate(0.000000,500.000000) scale(0.100000,-0.100000)"
fill="#000000" stroke="none">
<path d="M0 2500 l0 -2500 2500 0 2500 0 0 2500 0 2500 -2500 0 -2500 0 0
-2500z m2460 1532 c41 -4 88 -14 105 -21 16 -7 60 -19 98 -27 37 -7 82 -21
100 -30 75 -38 198 -154 229 -217 22 -44 79 -224 84 -267 2 -19 11 -66 19
-105 8 -38 19 -99 24 -135 11 -80 40 -166 76 -230 29 -52 50 -72 99 -97 28
-14 67 -43 86 -65 32 -38 33 -41 20 -66 -16 -27 -169 -111 -205 -112 -11 0
-45 -7 -75 -16 -48 -13 -80 -20 -203 -39 -15 -3 -35 -9 -45 -14 -9 -5 -48 -12
-87 -16 -38 -4 -77 -11 -85 -15 -8 -4 -45 -11 -82 -15 -63 -7 -68 -6 -68 12 0
10 6 27 14 38 7 11 16 50 20 86 6 53 4 68 -8 78 -21 17 -46 -2 -46 -34 0 -27
-36 -75 -55 -75 -8 0 -30 15 -49 34 -18 19 -57 43 -85 53 -28 10 -51 20 -51
23 0 17 -71 80 -89 80 -11 0 -21 -2 -21 -5 0 -18 52 -104 65 -109 28 -10 11
-31 -22 -28 -36 4 -50 -19 -25 -41 9 -8 38 -26 63 -40 51 -26 129 -86 129 -98
0 -4 -33 -9 -72 -13 -101 -8 -161 -17 -173 -26 -5 -4 -35 -13 -65 -20 -30 -6
-73 -17 -95 -23 -23 -7 -107 -12 -200 -12 -144 1 -164 3 -201 22 -63 33 -104
85 -106 136 -4 82 3 125 27 160 29 45 26 305 -5 341 -6 9 -14 43 -17 77 -3 41
-12 72 -25 90 -11 15 -18 32 -14 37 3 6 2 60 -3 121 -8 90 -8 116 4 138 7 16
30 63 50 107 30 64 52 94 121 161 56 54 103 90 141 107 77 35 184 70 268 88
69 15 116 28 123 35 8 8 210 0 312 -13z m1298 -851 c-20 -52 -106 -211 -114
-211 -6 0 -14 21 -17 47 -4 39 -2 50 14 61 10 7 19 24 19 37 0 34 39 75 73 75
16 0 27 -4 25 -9z m-2398 -667 c74 -74 144 -140 154 -148 17 -11 18 -19 10
-46 l-9 -33 -32 31 c-17 18 -36 32 -42 32 -6 0 -58 47 -115 105 -57 58 -110
105 -117 105 -18 0 -79 49 -79 64 0 24 24 36 60 30 28 -5 61 -32 170 -140z
m1648 28 c3 -18 0 -21 -15 -15 -22 8 -34 24 -26 36 10 16 38 2 41 -21z m382
-22 c4 -14 22 -50 41 -80 27 -45 33 -65 33 -110 -1 -30 -6 -74 -11 -97 -14
-56 -92 -151 -145 -175 -43 -19 -133 -24 -143 -8 -3 6 -17 10 -31 10 -14 0
-42 9 -64 20 -22 11 -49 20 -60 20 -11 0 -39 9 -60 20 -22 11 -60 23 -85 27
-38 5 -45 3 -45 -11 0 -21 49 -65 73 -66 9 0 34 -15 53 -33 l36 -33 -16 -33
c-9 -17 -29 -36 -43 -42 -15 -5 -33 -19 -40 -29 -8 -11 -20 -20 -28 -20 -8 0
-20 -8 -27 -18 -7 -10 -30 -28 -51 -41 -35 -21 -45 -23 -118 -17 -44 4 -92 14
-107 22 -15 7 -33 14 -40 14 -31 0 -114 45 -122 65 -9 23 -2 75 10 75 16 0 60
69 54 85 -5 13 -13 9 -38 -22 -17 -20 -42 -47 -55 -58 -13 -11 -59 -64 -102
-117 l-79 -97 0 -74 c0 -109 10 -111 96 -23 78 80 98 89 194 86 37 -1 61 -7
75 -19 29 -26 154 -84 195 -91 22 -3 35 -11 35 -20 0 -11 -18 -16 -76 -20 -58
-5 -90 -13 -140 -38 -74 -38 -87 -47 -117 -86 -17 -22 -19 -31 -10 -37 6 -4
19 -4 27 0 9 5 63 14 121 20 58 7 119 14 135 17 148 24 197 34 215 44 11 6 30
8 41 5 11 -4 26 -2 32 4 15 12 98 17 115 7 17 -10 5 -26 -18 -26 -11 0 -52
-16 -93 -35 -41 -19 -79 -35 -86 -35 -7 0 -27 -6 -44 -14 -49 -22 -83 -28
-192 -35 -79 -5 -100 -9 -100 -21 0 -10 12 -16 32 -18 17 -2 37 -10 43 -18 7
-8 20 -14 29 -14 10 0 26 -7 37 -15 10 -8 31 -15 46 -15 15 0 38 -4 52 -9 15
-6 37 -6 58 0 24 6 34 6 37 -3 2 -6 23 -31 47 -54 54 -52 60 -98 18 -148 -57
-67 -79 -76 -181 -76 -82 0 -93 2 -103 20 -7 13 -21 20 -40 20 -19 0 -33 7
-40 20 -8 15 -21 20 -55 20 -32 0 -50 6 -64 21 -14 15 -27 20 -44 15 -19 -4
-26 0 -35 19 -9 20 -17 24 -36 19 -18 -4 -27 -1 -36 15 -7 14 -21 21 -39 21
-22 0 -42 16 -102 85 -41 46 -79 84 -84 85 -18 0 -134 162 -135 188 0 7 -7 23
-15 35 -17 27 -35 171 -23 189 15 25 7 39 -29 54 -166 66 -228 126 -279 271
-17 50 -6 83 29 83 12 0 28 4 36 9 16 11 6 31 -16 31 -12 0 -14 7 -8 38 4 20
9 39 11 41 2 3 17 -8 32 -22 16 -15 32 -27 38 -27 5 0 22 -7 38 -15 34 -18 49
-19 176 -17 89 2 98 5 144 35 128 84 130 85 179 86 27 1 46 -3 43 -8 -13 -20
6 -43 31 -36 18 4 30 -1 48 -22 21 -24 26 -26 35 -13 5 8 10 36 10 61 0 29 6
51 15 59 8 7 15 19 15 28 0 12 11 14 67 9 59 -4 71 -9 95 -36 15 -17 28 -38
28 -47 0 -19 60 -114 72 -114 13 0 29 50 23 71 -7 22 23 79 42 79 6 0 16 7 21
15 6 12 42 18 169 25 152 9 164 11 221 41 33 17 73 44 88 60 33 35 55 34 64
-1z m-1440 -160 c0 -21 -24 -28 -35 -10 -8 14 3 30 21 30 8 0 14 -9 14 -20z
m-358 -333 c39 -33 60 -91 52 -148 l-6 -48 -47 6 c-52 7 -89 38 -110 91 -14
33 -13 34 30 78 24 24 46 44 49 44 3 -1 17 -11 32 -23z m1722 -323 c56 -53 58
-57 53 -96 -6 -47 -11 -53 -32 -44 -12 4 -15 14 -11 33 5 25 -1 34 -58 83 -71
61 -81 80 -38 80 21 0 44 -15 86 -56z"/>
<path d="M3320 2444 c-27 -31 -133 -62 -240 -69 -25 -2 -51 -4 -57 -4 -7 -1
-13 -5 -13 -11 0 -5 17 -10 38 -10 21 0 47 -7 58 -15 12 -9 43 -14 82 -15 54
0 66 4 85 24 12 13 37 39 55 58 17 19 32 40 32 47 0 16 -25 14 -40 -5z"/>
<path d="M1995 2170 c-3 -5 0 -13 9 -16 21 -8 61 -1 61 11 0 14 -62 19 -70 5z"/>
<path d="M2378 1585 c-6 -14 -31 -34 -57 -46 -64 -31 -90 -64 -91 -117 0 -47
5 -51 64 -56 23 -1 42 -9 48 -19 5 -9 16 -17 25 -17 13 0 15 9 10 48 -7 57 9
130 34 158 22 23 24 45 7 62 -18 18 -27 15 -40 -13z"/>
</g>
</svg>
